<?xml version="1.0" encoding="UTF-8"?>
<!DOCTYPE svg PUBLIC "-//W3C//DTD SVG 1.1//EN" "http://www.w3.org/Graphics/SVG/1.1/DTD/svg11.dtd">
<svg xmlns="http://www.w3.org/2000/svg" version="1.1" width="1024px" height="1024px" style="shape-rendering:geometricPrecision; text-rendering:geometricPrecision; image-rendering:optimizeQuality; fill-rule:evenodd; clip-rule:evenodd" xmlns:xlink="http://www.w3.org/1999/xlink">
<g><path style="opacity:0.972" fill="#fefffe" d="M 508.5,195.5 C 512.033,195.676 515.033,197.009 517.5,199.5C 542.847,224.347 568.013,249.347 593,274.5C 599.694,283.251 598.861,291.084 590.5,298C 582.876,301.442 575.543,301.109 568.5,297C 558.98,288.646 549.313,280.479 539.5,272.5C 538.669,278.807 538.169,285.141 538,291.5C 537.5,348.166 537.333,404.832 537.5,461.5C 518.65,461.439 499.983,461.772 481.5,462.5C 481.804,426 482.137,389.5 482.5,353C 482.498,326.156 481.998,299.323 481,272.5C 471.655,278.941 463.155,286.441 455.5,295C 447.644,299.991 439.311,300.658 430.5,297C 423.199,291.403 421.699,284.569 426,276.5C 436.201,264.632 447.368,253.798 459.5,244C 475.063,226.936 491.397,210.769 508.5,195.5 Z"/></g>
<g><path style="opacity:0.953" fill="#fefffe" d="M 572.5,334.5 C 573.566,335.692 574.399,335.359 575,333.5C 577.074,335.452 579.241,337.285 581.5,339C 584.245,338.944 586.745,340.111 589,342.5C 589.333,342.167 589.667,341.833 590,341.5C 595.738,344.997 601.071,348.997 606,353.5C 606.414,353.043 606.914,352.709 607.5,352.5C 608.808,354.641 610.308,356.641 612,358.5C 612.333,358.167 612.667,357.833 613,357.5C 616.333,362.167 620.333,366.167 625,369.5C 626.513,372.524 628.513,375.191 631,377.5C 632.566,376.939 633.899,377.606 635,379.5C 636.371,382.88 638.538,385.713 641.5,388C 641.167,388.333 640.833,388.667 640.5,389C 642.919,391.144 644.586,393.644 645.5,396.5C 644.167,396.833 644.167,397.167 645.5,397.5C 647.722,399.686 649.555,402.353 651,405.5C 650.669,407.019 650.836,408.352 651.5,409.5C 651.746,412.041 653.079,414.374 655.5,416.5C 654.674,417.451 654.508,418.451 655,419.5C 656.131,418.396 656.965,418.729 657.5,420.5C 656.833,420.833 656.167,421.167 655.5,421.5C 656.189,423.444 656.689,425.444 657,427.5C 657.333,426.5 657.667,425.5 658,424.5C 658.333,424.833 658.667,425.167 659,425.5C 659.667,430.833 659.667,436.167 659,441.5C 658.066,442.858 657.232,444.192 656.5,445.5C 656.167,442.833 655.833,442.833 655.5,445.5C 654.662,445.842 654.328,446.508 654.5,447.5C 653.167,448.167 653.167,448.833 654.5,449.5C 651.196,451.973 648.362,454.973 646,458.5C 645.259,457.359 644.425,457.359 643.5,458.5C 641.981,459.851 640.648,461.351 639.5,463C 633.705,463.111 627.705,462.611 621.5,461.5C 619.01,460.91 616.343,460.743 613.5,461C 611.112,459.139 608.446,457.806 605.5,457C 602.272,452.86 598.605,449.194 594.5,446C 595.553,444.251 595.22,442.751 593.5,441.5C 593.167,440.167 592.833,440.167 592.5,441.5C 593.121,439.002 592.455,436.668 590.5,434.5C 585.202,422.99 576.869,413.49 565.5,406C 562.514,406.444 559.847,405.444 557.5,403C 559.017,393.226 559.35,383.392 558.5,373.5C 559.181,359.174 559.681,344.841 560,330.5C 562.818,331.128 565.485,332.128 568,333.5C 569.726,332.338 571.226,332.671 572.5,334.5 Z"/></g>
<g><path style="opacity:0.97" fill="#fefffe" d="M 429.5,437.5 C 429.692,442.903 429.025,448.403 427.5,454C 427.519,455.521 427.852,457.021 428.5,458.5C 428.263,459.791 428.596,460.791 429.5,461.5C 430.31,466.462 432.643,470.462 436.5,473.5C 441.606,478.046 447.606,481.213 454.5,483C 471.53,483.264 488.53,484.098 505.5,485.5C 511.769,485.323 517.936,484.657 524,483.5C 539.689,483.708 555.689,483.708 572,483.5C 579.19,484.814 586.357,486.314 593.5,488C 596.196,488.804 598.696,489.971 601,491.5C 602.566,490.939 603.899,491.606 605,493.5C 605.333,493.167 605.667,492.833 606,492.5C 607.067,493.191 608.234,493.691 609.5,494C 608.833,494.333 608.167,494.667 607.5,495C 609.722,495.695 611.889,496.528 614,497.5C 615.925,499.539 618.092,501.205 620.5,502.5C 622.7,503.862 624.7,505.529 626.5,507.5C 628.167,509.833 630.167,511.833 632.5,513.5C 635.195,516.526 637.862,519.526 640.5,522.5C 640.427,524.027 641.094,525.027 642.5,525.5C 642.328,526.492 642.662,527.158 643.5,527.5C 644.026,529.23 645.026,530.564 646.5,531.5C 646.66,533.153 647.326,534.486 648.5,535.5C 650.129,540.735 652.129,545.735 654.5,550.5C 659.018,569.345 659.684,588.345 656.5,607.5C 655.167,608.167 655.167,608.833 656.5,609.5C 656.167,610.167 655.833,610.833 655.5,611.5C 653.865,615.664 652.365,619.998 651,624.5C 647.605,626.862 647.105,629.528 649.5,632.5C 648.607,636.342 646.274,638.842 642.5,640C 641.743,641.512 640.743,642.846 639.5,644C 639.833,644.333 640.167,644.667 640.5,645C 638.859,646.129 637.859,647.629 637.5,649.5C 636.167,649.833 636.167,650.167 637.5,650.5C 635.813,651.918 633.98,653.251 632,654.5C 630.861,657.261 630.194,659.927 630,662.5C 628.989,663.337 627.822,663.67 626.5,663.5C 626.167,662.167 625.833,662.167 625.5,663.5C 624.167,663.833 624.167,664.167 625.5,664.5C 625.082,665.222 624.416,665.722 623.5,666C 624.833,667.84 624.666,668.34 623,667.5C 622.283,668.044 621.783,668.711 621.5,669.5C 620.07,671.386 618.403,673.053 616.5,674.5C 615.167,675.167 614.167,676.167 613.5,677.5C 610.736,680.719 607.736,683.719 604.5,686.5C 594.666,691.916 584.999,697.582 575.5,703.5C 572.843,703.935 570.509,704.935 568.5,706.5C 565.123,706.959 561.789,707.626 558.5,708.5C 558.167,684.491 558.5,660.491 559.5,636.5C 560.739,636.058 561.739,635.391 562.5,634.5C 564.434,633.89 566.101,632.89 567.5,631.5C 582.099,621.397 590.766,607.564 593.5,590C 593.492,583.419 592.159,577.252 589.5,571.5C 589.34,569.847 588.674,568.514 587.5,567.5C 587.155,564.802 585.822,562.802 583.5,561.5C 579.56,555.704 574.56,553.038 568.5,553.5C 567.304,553.154 567.304,552.654 568.5,552C 565.947,551.239 563.447,550.406 561,549.5C 557.097,549.442 553.264,549.776 549.5,550.5C 548.175,551.953 547.342,551.619 547,549.5C 541.298,550.908 535.631,551.241 530,550.5C 518.63,551.451 507.463,552.118 496.5,552.5C 475.95,551.363 455.283,551.196 434.5,552C 435.167,551.667 435.833,551.333 436.5,551C 433.943,549.881 431.443,549.715 429,550.5C 425.877,548.174 422.377,546.507 418.5,545.5C 415.564,542.85 412.231,541.683 408.5,542C 407.167,541.333 407.167,540.667 408.5,540C 404.083,538.067 400.083,535.567 396.5,532.5C 393.291,529.79 390.291,526.79 387.5,523.5C 387.167,522.5 386.5,521.833 385.5,521.5C 383.846,518.685 382.013,516.018 380,513.5C 378.334,514.34 378.167,513.84 379.5,512C 378.934,511.005 378.267,510.172 377.5,509.5C 377.426,507.589 376.426,506.422 374.5,506C 375.553,504.251 375.22,502.751 373.5,501.5C 373.167,500.167 372.833,500.167 372.5,501.5C 372.167,500.167 371.833,498.833 371.5,497.5C 371.631,496.761 371.464,496.094 371,495.5C 369.334,496.34 369.167,495.84 370.5,494C 368.407,491.218 367.24,488.051 367,484.5C 366.5,482.667 365.333,481.5 363.5,481C 365.054,478.103 364.554,475.603 362,473.5C 361.333,460.5 361.333,447.5 362,434.5C 365.164,428.188 367.664,421.521 369.5,414.5C 368.572,413.232 368.405,411.899 369,410.5C 370.087,412.932 370.587,412.598 370.5,409.5C 372.87,405.414 374.87,401.081 376.5,396.5C 377.783,394.132 379.45,391.965 381.5,390C 381.5,389 381.5,388 381.5,387C 384.694,384.303 387.361,381.137 389.5,377.5C 395.275,369.958 401.942,363.291 409.5,357.5C 414.574,353.084 419.908,349.084 425.5,345.5C 428.485,344.674 431.151,343.341 433.5,341.5C 435.141,340.853 436.474,339.853 437.5,338.5C 437.56,339.043 437.893,339.376 438.5,339.5C 442.384,337.705 446.384,336.205 450.5,335C 451.543,333.024 452.877,332.524 454.5,333.5C 455.851,330.857 458.018,330.857 461,333.5C 460.854,356.021 460.854,378.688 461,401.5C 459.899,403.394 458.566,404.061 457,403.5C 456.017,405.448 454.85,407.282 453.5,409C 451.152,409.346 449.319,410.513 448,412.5C 447.086,411.346 446.253,411.513 445.5,413C 445.833,413.333 446.167,413.667 446.5,414C 444.111,417.038 441.111,419.372 437.5,421C 437.833,421.333 438.167,421.667 438.5,422C 434.798,425.08 432.464,428.08 431.5,431C 433.602,432.73 433.435,434.563 431,436.5C 429.913,434.068 429.413,434.402 429.5,437.5 Z"/></g>
<g><path style="opacity:0.008" fill="#fefffe" d="M 572.5,333.5 C 573.833,334.167 573.833,334.167 572.5,333.5 Z"/></g>
<g><path style="opacity:0.008" fill="#fefffe" d="M 437.5,337.5 C 438.833,338.167 438.833,338.167 437.5,337.5 Z"/></g>
<g><path style="opacity:0.016" fill="#fefffe" d="M 433.5,341.5 C 432.833,340.167 432.833,340.167 433.5,341.5 Z"/></g>
<g><path style="opacity:0.008" fill="#fefffe" d="M 425.5,345.5 C 424.833,344.167 424.833,344.167 425.5,345.5 Z"/></g>
<g><path style="opacity:0.008" fill="#fefffe" d="M 411.5,353.5 C 412.833,354.167 412.833,354.167 411.5,353.5 Z"/></g>
<g><path style="opacity:0.024" fill="#fefffe" d="M 409.5,357.5 C 408.833,356.167 408.833,356.167 409.5,357.5 Z"/></g>
<g><path style="opacity:0.016" fill="#fefffe" d="M 389.5,377.5 C 388.833,376.167 388.833,376.167 389.5,377.5 Z"/></g>
<g><path style="opacity:0.035" fill="#fefffe" d="M 376.5,396.5 C 375.833,395.167 375.833,395.167 376.5,396.5 Z"/></g>
<g><path style="opacity:0.012" fill="#fefffe" d="M 645.5,396.5 C 646.833,397.167 646.833,397.167 645.5,396.5 Z"/></g>
<g><path style="opacity:0.016" fill="#fefffe" d="M 370.5,409.5 C 369.475,409.103 369.308,408.437 370,407.5C 370.464,408.094 370.631,408.761 370.5,409.5 Z"/></g>
<g><path style="opacity:0.008" fill="#fefffe" d="M 652.5,409.5 C 651.833,408.167 651.833,408.167 652.5,409.5 Z"/></g>
<g><path style="opacity:0.004" fill="#fefffe" d="M 569.5,410.5 C 568.833,409.167 568.833,409.167 569.5,410.5 Z"/></g>
<g><path style="opacity:0.008" fill="#fefffe" d="M 652.5,409.5 C 653.833,410.167 653.833,410.167 652.5,409.5 Z"/></g>
<g><path style="opacity:0.004" fill="#fefffe" d="M 569.5,410.5 C 570.833,411.167 570.833,411.167 569.5,410.5 Z"/></g>
<g><path style="opacity:0.008" fill="#fefffe" d="M 365.5,419.5 C 366.833,420.167 366.833,420.167 365.5,419.5 Z"/></g>
<g><path style="opacity:0.004" fill="#fefffe" d="M 585.5,428.5 C 586.833,429.167 586.833,429.167 585.5,428.5 Z"/></g>
<g><path style="opacity:0.008" fill="#fefffe" d="M 590.5,434.5 C 589.833,435.167 589.833,435.167 590.5,434.5 Z"/></g>
<g><path style="opacity:0.016" fill="#fefffe" d="M 429.5,437.5 C 430.833,438.167 430.833,438.167 429.5,437.5 Z"/></g>
<g><path style="opacity:0.012" fill="#fefffe" d="M 592.5,441.5 C 592.833,441.5 593.167,441.5 593.5,441.5C 593.315,442.17 592.981,442.17 592.5,441.5 Z"/></g>
<g><path style="opacity:0.004" fill="#fefffe" d="M 655.5,445.5 C 655.833,445.5 656.167,445.5 656.5,445.5C 656.315,446.17 655.981,446.17 655.5,445.5 Z"/></g>
<g><path style="opacity:0.027" fill="#fefffe" d="M 654.5,447.5 C 655.833,448.167 655.833,448.833 654.5,449.5C 654.5,448.833 654.5,448.167 654.5,447.5 Z"/></g>
<g><path style="opacity:0.025" fill="#fefffe" d="M 428.5,458.5 C 428.369,457.761 428.536,457.094 429,456.5C 429.692,457.437 429.525,458.103 428.5,458.5 Z"/></g>
<g><path style="opacity:0.016" fill="#fefffe" d="M 430.5,461.5 C 429.833,460.167 429.833,460.167 430.5,461.5 Z"/></g>
<g><path style="opacity:0.012" fill="#fefffe" d="M 430.5,461.5 C 431.833,462.167 431.833,462.167 430.5,461.5 Z"/></g>
<g><path style="opacity:0.016" fill="#fefffe" d="M 621.5,461.5 C 620.833,462.167 620.833,462.167 621.5,461.5 Z"/></g>
<g><path style="opacity:0.016" fill="#fefffe" d="M 436.5,472.5 C 437.833,473.167 437.833,473.167 436.5,472.5 Z"/></g>
<g><path style="opacity:0.004" fill="#fefffe" d="M 505.5,484.5 C 505.897,483.475 506.563,483.308 507.5,484C 506.906,484.464 506.239,484.631 505.5,484.5 Z"/></g>
<g><path style="opacity:0.024" fill="#fefffe" d="M 589.5,485.5 C 590.833,486.167 590.833,486.167 589.5,485.5 Z"/></g>
<g><path style="opacity:0.02" fill="#fefffe" d="M 371.5,497.5 C 370.833,498.167 370.833,498.167 371.5,497.5 Z"/></g>
<g><path style="opacity:0.024" fill="#fefffe" d="M 372.5,501.5 C 372.833,501.5 373.167,501.5 373.5,501.5C 373.315,502.17 372.981,502.17 372.5,501.5 Z"/></g>
<g><path style="opacity:0.024" fill="#fefffe" d="M 620.5,501.5 C 621.833,502.167 621.833,502.167 620.5,501.5 Z"/></g>
<g><path style="opacity:0.006" fill="#fefffe" d="M 626.5,507.5 C 627.167,506.167 627.833,506.167 628.5,507.5C 627.833,507.5 627.167,507.5 626.5,507.5 Z"/></g>
<g><path style="opacity:0.051" fill="#fefffe" d="M 628.5,507.5 C 629.167,507.5 629.5,507.833 629.5,508.5C 629.167,508.167 628.833,507.833 628.5,507.5 Z"/></g>
<g><path style="opacity:0.012" fill="#fefffe" d="M 629.5,508.5 C 630.833,509.167 630.833,509.167 629.5,508.5 Z"/></g>
<g><path style="opacity:0.008" fill="#fefffe" d="M 377.5,509.5 C 376.833,510.167 376.833,510.167 377.5,509.5 Z"/></g>
<g><path style="opacity:0.012" fill="#fefffe" d="M 632.5,512.5 C 633.833,513.167 633.833,513.167 632.5,512.5 Z"/></g>
<g><path style="opacity:0.02" fill="#fefffe" d="M 634.5,513.5 C 635.833,514.167 635.833,514.167 634.5,513.5 Z"/></g>
<g><path style="opacity:0.016" fill="#fefffe" d="M 385.5,521.5 C 384.833,522.167 384.833,522.167 385.5,521.5 Z"/></g>
<g><path style="opacity:0.004" fill="#fefffe" d="M 640.5,521.5 C 641.833,522.167 641.833,522.167 640.5,521.5 Z"/></g>
<g><path style="opacity:0.004" fill="#fefffe" d="M 387.5,523.5 C 386.833,524.167 386.833,524.167 387.5,523.5 Z"/></g>
<g><path style="opacity:0.008" fill="#fefffe" d="M 642.5,524.5 C 643.833,525.167 643.833,525.167 642.5,524.5 Z"/></g>
<g><path style="opacity:0.004" fill="#fefffe" d="M 643.5,526.5 C 644.833,527.167 644.833,527.167 643.5,526.5 Z"/></g>
<g><path style="opacity:0.016" fill="#fefffe" d="M 646.5,530.5 C 647.833,531.167 647.833,531.167 646.5,530.5 Z"/></g>
<g><path style="opacity:0.008" fill="#fefffe" d="M 396.5,532.5 C 395.833,533.167 395.833,533.167 396.5,532.5 Z"/></g>
<g><path style="opacity:0.02" fill="#fefffe" d="M 648.5,535.5 C 648.369,534.761 648.536,534.094 649,533.5C 649.692,534.437 649.525,535.103 648.5,535.5 Z"/></g>
<g><path style="opacity:0.02" fill="#fefffe" d="M 652.5,543.5 C 653.833,544.167 653.833,544.167 652.5,543.5 Z"/></g>
<g><path style="opacity:0.009" fill="#fefffe" d="M 418.5,545.5 C 419.368,547.892 418.701,548.059 416.5,546C 417.094,545.536 417.761,545.369 418.5,545.5 Z"/></g>
<g><path style="opacity:0.012" fill="#fefffe" d="M 654.5,549.5 C 655.833,550.167 655.833,550.167 654.5,549.5 Z"/></g>
<g><path style="opacity:0.016" fill="#fefffe" d="M 549.5,550.5 C 550.552,550.351 551.552,550.517 552.5,551C 551.251,551.74 550.251,551.573 549.5,550.5 Z"/></g>
<g><path style="opacity:0.012" fill="#fefffe" d="M 477.5,553.5 C 480.64,552.359 483.973,552.192 487.5,553C 484.183,553.498 480.85,553.665 477.5,553.5 Z"/></g>
<g><path style="opacity:0.004" fill="#fefffe" d="M 488.5,552.5 C 489.833,553.167 489.833,553.167 488.5,552.5 Z"/></g>
<g><path style="opacity:0.008" fill="#fefffe" d="M 490.5,552.5 C 491.833,553.167 491.833,553.167 490.5,552.5 Z"/></g>
<g><path style="opacity:0.004" fill="#fefffe" d="M 492.5,553.5 C 492.897,552.475 493.563,552.308 494.5,553C 493.906,553.464 493.239,553.631 492.5,553.5 Z"/></g>
<g><path style="opacity:0.024" fill="#fefffe" d="M 496.5,552.5 C 495.833,553.167 495.833,553.167 496.5,552.5 Z"/></g>
<g><path style="opacity:0.012" fill="#fefffe" d="M 499.5,552.5 C 500.833,553.167 500.833,553.167 499.5,552.5 Z"/></g>
<g><path style="opacity:0.004" fill="#fefffe" d="M 501.5,553.5 C 502.601,552.402 503.934,552.235 505.5,553C 504.207,553.49 502.873,553.657 501.5,553.5 Z"/></g>
<g><path style="opacity:0.008" fill="#fefffe" d="M 509.5,553.5 C 510.601,552.402 511.934,552.235 513.5,553C 512.207,553.49 510.873,553.657 509.5,553.5 Z"/></g>
<g><path style="opacity:0.02" fill="#fefffe" d="M 575.5,556.5 C 574.833,555.167 574.833,555.167 575.5,556.5 Z"/></g>
<g><path style="opacity:0.027" fill="#fefffe" d="M 575.5,556.5 C 576.833,557.167 576.833,557.167 575.5,556.5 Z"/></g>
<g><path style="opacity:0.018" fill="#fefffe" d="M 657.5,558.5 C 658.117,558.611 658.617,558.944 659,559.5C 659.667,562.833 659.667,566.167 659,569.5C 658.58,565.809 658.08,562.142 657.5,558.5 Z"/></g>
<g><path style="opacity:0.039" fill="#fefffe" d="M 583.5,561.5 C 582.833,562.167 582.833,562.167 583.5,561.5 Z"/></g>
<g><path style="opacity:0.012" fill="#fefffe" d="M 586.5,567.5 C 585.833,566.167 585.833,566.167 586.5,567.5 Z"/></g>
<g><path style="opacity:0.008" fill="#fefffe" d="M 586.5,567.5 C 586.833,567.5 587.167,567.5 587.5,567.5C 587.315,568.17 586.981,568.17 586.5,567.5 Z"/></g>
<g><path style="opacity:0.972" fill="#fefffe" d="M 538.5,576.5 C 537.167,576.833 537.167,577.167 538.5,577.5C 538.357,579.262 538.691,580.929 539.5,582.5C 538.83,653.481 538.163,724.481 537.5,795.5C 538.167,797.5 538.833,799.5 539.5,801.5C 539.441,803.767 538.608,804.433 537,803.5C 536.316,804.784 536.483,805.951 537.5,807C 535.169,808.8 535.169,810.8 537.5,813C 536,813.833 534.833,815 534,816.5C 533,816.167 532,815.833 531,815.5C 528.238,819.766 524.738,823.099 520.5,825.5C 519.508,825.328 518.842,825.662 518.5,826.5C 513.52,827.574 508.52,827.574 503.5,826.5C 492.321,822.151 485.154,814.151 482,802.5C 481.683,804.301 481.016,804.634 480,803.5C 481.184,736.189 482.017,658.856 482.5,571.5C 485.3,572.732 488.3,573.399 491.5,573.5C 498.212,573.229 504.878,572.562 511.5,571.5C 520.057,571.974 528.724,572.474 537.5,573C 538.337,574.011 538.67,575.178 538.5,576.5 Z"/></g>
<g><path style="opacity:0.008" fill="#fefffe" d="M 485.5,572.5 C 489.646,571.353 493.98,571.186 498.5,572C 494.179,572.499 489.846,572.666 485.5,572.5 Z"/></g>
<g><path style="opacity:0.008" fill="#fefffe" d="M 589.5,571.5 C 588.833,572.167 588.833,572.167 589.5,571.5 Z"/></g>
<g><path style="opacity:0.011" fill="#fefffe" d="M 479.5,573.5 C 480.598,574.601 480.765,575.934 480,577.5C 479.51,576.207 479.343,574.873 479.5,573.5 Z"/></g>
<g><path style="opacity:0.004" fill="#fefffe" d="M 538.5,576.5 C 539.833,577.167 539.833,577.167 538.5,576.5 Z"/></g>
<g><path style="opacity:0.012" fill="#fefffe" d="M 385.5,581.5 C 386.833,582.167 386.833,582.167 385.5,581.5 Z"/></g>
<g><path style="opacity:0.024" fill="#fefffe" d="M 388.5,582.5 C 387.833,581.167 387.833,581.167 388.5,582.5 Z"/></g>
<g><path style="opacity:0.01" fill="#fefffe" d="M 402.5,582.5 C 402.897,581.475 403.563,581.308 404.5,582C 403.906,582.464 403.239,582.631 402.5,582.5 Z"/></g>
<g><path style="opacity:0.964" fill="#fefffe" d="M 388.5,582.5 C 401.33,581.501 412.664,585.001 422.5,593C 422.167,593.333 421.833,593.667 421.5,594C 423.42,597.965 425.42,601.798 427.5,605.5C 427.328,606.492 427.662,607.158 428.5,607.5C 430.785,608.703 432.119,610.703 432.5,613.5C 431.167,613.833 431.167,614.167 432.5,614.5C 433.167,615.833 434.167,616.833 435.5,617.5C 435.947,620.524 436.78,620.857 438,618.5C 439.113,619.76 439.28,620.927 438.5,622C 440.377,623.185 442.377,624.185 444.5,625C 442.258,626.007 442.592,626.841 445.5,627.5C 446.167,628.833 447.167,629.833 448.5,630.5C 448.973,631.906 449.973,632.573 451.5,632.5C 452.514,633.674 453.847,634.34 455.5,634.5C 456.514,635.674 457.847,636.34 459.5,636.5C 460.865,638.568 461.865,640.901 462.5,643.5C 463.639,665.879 463.639,687.879 462.5,709.5C 452.441,706.299 442.774,702.299 433.5,697.5C 430.506,695 427.173,693 423.5,691.5C 419.194,687.679 414.527,684.345 409.5,681.5C 399.078,671.747 389.744,661.08 381.5,649.5C 378.527,643.22 375.193,637.22 371.5,631.5C 368.685,623.891 366.352,616.224 364.5,608.5C 364.431,599.067 368.431,591.901 376.5,587C 380.432,584.972 384.432,583.472 388.5,582.5 Z"/></g>
<g><path style="opacity:0.004" fill="#fefffe" d="M 591.5,586.5 C 592.573,587.251 592.74,588.251 592,589.5C 591.517,588.552 591.351,587.552 591.5,586.5 Z"/></g>
<g><path style="opacity:0.004" fill="#fefffe" d="M 479.5,591.5 C 480.833,592.167 480.833,592.167 479.5,591.5 Z"/></g>
<g><path style="opacity:0.024" fill="#fefffe" d="M 591.5,593.5 C 592.833,594.167 592.833,594.167 591.5,593.5 Z"/></g>
<g><path style="opacity:0.004" fill="#fefffe" d="M 479.5,595.5 C 480.654,601.987 480.821,608.654 480,615.5C 479.5,608.842 479.334,602.175 479.5,595.5 Z"/></g>
<g><path style="opacity:0.049" fill="#fefffe" d="M 363.5,599.5 C 364.525,599.897 364.692,600.563 364,601.5C 363.536,600.906 363.369,600.239 363.5,599.5 Z"/></g>
<g><path style="opacity:0.004" fill="#fefffe" d="M 426.5,601.5 C 427.833,602.167 427.833,602.167 426.5,601.5 Z"/></g>
<g><path style="opacity:0.012" fill="#fefffe" d="M 427.5,604.5 C 428.833,605.167 428.833,605.167 427.5,604.5 Z"/></g>
<g><path style="opacity:0.004" fill="#fefffe" d="M 587.5,604.5 C 588.833,605.167 588.833,605.167 587.5,604.5 Z"/></g>
<g><path style="opacity:0.027" fill="#fefffe" d="M 428.5,606.5 C 429.833,607.167 429.833,607.167 428.5,606.5 Z"/></g>
<g><path style="opacity:0.027" fill="#fefffe" d="M 656.5,607.5 C 657.833,608.167 657.833,608.833 656.5,609.5C 656.5,608.833 656.5,608.167 656.5,607.5 Z"/></g>
<g><path style="opacity:0.02" fill="#fefffe" d="M 364.5,608.5 C 364.663,610.857 364.497,613.19 364,615.5C 363.204,612.961 363.371,610.628 364.5,608.5 Z"/></g>
<g><path style="opacity:0.009" fill="#fefffe" d="M 655.5,611.5 C 656.573,612.251 656.74,613.251 656,614.5C 655.517,613.552 655.351,612.552 655.5,611.5 Z"/></g>
<g><path style="opacity:0.016" fill="#fefffe" d="M 432.5,613.5 C 433.833,614.167 433.833,614.167 432.5,613.5 Z"/></g>
<g><path style="opacity:0.024" fill="#fefffe" d="M 654.5,615.5 C 655.833,616.167 655.833,616.167 654.5,615.5 Z"/></g>
<g><path style="opacity:0.004" fill="#fefffe" d="M 435.5,616.5 C 436.833,617.167 436.833,617.167 435.5,616.5 Z"/></g>
<g><path style="opacity:0.014" fill="#fefffe" d="M 365.5,618.5 C 366.525,618.897 366.692,619.563 366,620.5C 365.536,619.906 365.369,619.239 365.5,618.5 Z"/></g>
<g><path style="opacity:0.004" fill="#fefffe" d="M 576.5,620.5 C 577.833,621.167 577.833,621.167 576.5,620.5 Z"/></g>
<g><path style="opacity:0.016" fill="#fefffe" d="M 440.5,621.5 C 441.833,622.167 441.833,622.167 440.5,621.5 Z"/></g>
<g><path style="opacity:0.008" fill="#fefffe" d="M 576.5,621.5 C 575.833,622.167 575.833,622.167 576.5,621.5 Z"/></g>
<g><path style="opacity:0.027" fill="#fefffe" d="M 575.5,622.5 C 574.833,623.167 574.833,623.167 575.5,622.5 Z"/></g>
<g><path style="opacity:0.024" fill="#fefffe" d="M 367.5,624.5 C 368.833,625.167 368.833,625.167 367.5,624.5 Z"/></g>
<g><path style="opacity:0.012" fill="#fefffe" d="M 445.5,626.5 C 446.833,627.167 446.833,627.167 445.5,626.5 Z"/></g>
<g><path style="opacity:0.012" fill="#fefffe" d="M 568.5,628.5 C 569.833,629.167 569.833,629.167 568.5,628.5 Z"/></g>
<g><path style="opacity:0.027" fill="#fefffe" d="M 369.5,629.5 C 370.833,630.167 370.833,630.167 369.5,629.5 Z"/></g>
<g><path style="opacity:0.004" fill="#fefffe" d="M 448.5,629.5 C 449.833,630.167 449.833,630.167 448.5,629.5 Z"/></g>
<g><path style="opacity:0.016" fill="#fefffe" d="M 567.5,631.5 C 566.833,630.167 566.833,630.167 567.5,631.5 Z"/></g>
<g><path style="opacity:0.02" fill="#fefffe" d="M 371.5,631.5 C 370.833,632.167 370.833,632.167 371.5,631.5 Z"/></g>
<g><path style="opacity:0.006" fill="#fefffe" d="M 451.5,632.5 C 451.897,631.475 452.563,631.308 453.5,632C 452.906,632.464 452.239,632.631 451.5,632.5 Z"/></g>
<g><path style="opacity:0.025" fill="#fefffe" d="M 455.5,634.5 C 455.897,633.475 456.563,633.308 457.5,634C 456.906,634.464 456.239,634.631 455.5,634.5 Z"/></g>
<g><path style="opacity:0.016" fill="#fefffe" d="M 562.5,634.5 C 561.833,633.167 561.833,633.167 562.5,634.5 Z"/></g>
<g><path style="opacity:0.013" fill="#fefffe" d="M 479.5,634.5 C 480.634,636.966 480.801,639.633 480,642.5C 479.503,639.854 479.336,637.187 479.5,634.5 Z"/></g>
<g><path style="opacity:0.008" fill="#fefffe" d="M 459.5,635.5 C 460.833,636.167 460.833,636.167 459.5,635.5 Z"/></g>
<g><path style="opacity:0.008" fill="#fefffe" d="M 462.5,637.5 C 463.833,638.167 463.833,638.167 462.5,637.5 Z"/></g>
<g><path style="opacity:0.004" fill="#fefffe" d="M 462.5,640.5 C 463.833,641.167 463.833,641.167 462.5,640.5 Z"/></g>
<g><path style="opacity:0.004" fill="#fefffe" d="M 479.5,643.5 C 480.525,643.897 480.692,644.563 480,645.5C 479.536,644.906 479.369,644.239 479.5,643.5 Z"/></g>
<g><path style="opacity:0.008" fill="#fefffe" d="M 479.5,646.5 C 480.629,648.628 480.796,650.961 480,653.5C 479.503,651.19 479.337,648.857 479.5,646.5 Z"/></g>
<g><path style="opacity:0.008" fill="#fefffe" d="M 380.5,649.5 C 379.833,648.167 379.833,648.167 380.5,649.5 Z"/></g>
<g><path style="opacity:0.004" fill="#fefffe" d="M 380.5,649.5 C 380.833,649.5 381.167,649.5 381.5,649.5C 381.315,650.17 380.981,650.17 380.5,649.5 Z"/></g>
<g><path style="opacity:0.012" fill="#fefffe" d="M 637.5,649.5 C 638.833,650.167 638.833,650.167 637.5,649.5 Z"/></g>
<g><path style="opacity:0.016" fill="#fefffe" d="M 625.5,663.5 C 625.833,663.5 626.167,663.5 626.5,663.5C 626.315,664.17 625.981,664.17 625.5,663.5 Z"/></g>
<g><path style="opacity:0.01" fill="#fefffe" d="M 479.5,666.5 C 480.643,669.976 480.81,673.642 480,677.5C 479.501,673.848 479.335,670.182 479.5,666.5 Z"/></g>
<g><path style="opacity:0.008" fill="#fefffe" d="M 621.5,669.5 C 622.833,670.167 622.833,670.167 621.5,669.5 Z"/></g>
<g><path style="opacity:0.016" fill="#fefffe" d="M 616.5,674.5 C 617.833,675.167 617.833,675.167 616.5,674.5 Z"/></g>
<g><path style="opacity:0.016" fill="#fefffe" d="M 613.5,677.5 C 614.833,678.167 614.833,678.167 613.5,677.5 Z"/></g>
<g><path style="opacity:0.004" fill="#fefffe" d="M 479.5,679.5 C 480.833,680.167 480.833,680.167 479.5,679.5 Z"/></g>
<g><path style="opacity:0.008" fill="#fefffe" d="M 409.5,681.5 C 408.833,682.167 408.833,682.167 409.5,681.5 Z"/></g>
<g><path style="opacity:0.014" fill="#fefffe" d="M 479.5,682.5 C 480.659,693.326 480.826,704.326 480,715.5C 479.5,704.505 479.333,693.505 479.5,682.5 Z"/></g>
<g><path style="opacity:0.027" fill="#fefffe" d="M 604.5,686.5 C 605.833,687.167 605.833,687.167 604.5,686.5 Z"/></g>
<g><path style="opacity:0.008" fill="#fefffe" d="M 416.5,687.5 C 417.833,688.167 417.833,688.167 416.5,687.5 Z"/></g>
<g><path style="opacity:0.016" fill="#fefffe" d="M 423.5,691.5 C 422.833,692.167 422.833,692.167 423.5,691.5 Z"/></g>
<g><path style="opacity:0.004" fill="#fefffe" d="M 595.5,692.5 C 596.833,693.167 596.833,693.167 595.5,692.5 Z"/></g>
<g><path style="opacity:0.039" fill="#fefffe" d="M 592.5,694.5 C 593.833,695.167 593.833,695.167 592.5,694.5 Z"/></g>
<g><path style="opacity:0.004" fill="#fefffe" d="M 433.5,697.5 C 432.833,698.167 432.833,698.167 433.5,697.5 Z"/></g>
<g><path style="opacity:0.004" fill="#fefffe" d="M 575.5,703.5 C 576.833,704.167 576.833,704.167 575.5,703.5 Z"/></g>
<g><path style="opacity:0.012" fill="#fefffe" d="M 575.5,704.5 C 574.833,705.167 574.833,705.167 575.5,704.5 Z"/></g>
<g><path style="opacity:0.027" fill="#fefffe" d="M 568.5,706.5 C 569.833,707.167 569.833,707.167 568.5,706.5 Z"/></g>
<g><path style="opacity:0.022" fill="#fefffe" d="M 563.5,709.5 C 563.897,708.475 564.563,708.308 565.5,709C 564.906,709.464 564.239,709.631 563.5,709.5 Z"/></g>
<g><path style="opacity:0.004" fill="#fefffe" d="M 460.5,710.5 C 461.833,711.167 461.833,711.167 460.5,710.5 Z"/></g>
<g><path style="opacity:0.013" fill="#fefffe" d="M 479.5,745.5 C 480.658,754.657 480.824,763.991 480,773.5C 479.5,764.173 479.334,754.839 479.5,745.5 Z"/></g>
<g><path style="opacity:0.008" fill="#fefffe" d="M 481.5,807.5 C 482.833,808.167 482.833,808.167 481.5,807.5 Z"/></g>
<g><path style="opacity:0.008" fill="#fefffe" d="M 483.5,812.5 C 484.833,813.167 484.833,813.167 483.5,812.5 Z"/></g>
<g><path style="opacity:0.019" fill="#fefffe" d="M 520.5,825.5 C 521.885,826.302 521.718,826.969 520,827.5C 519.235,827.43 518.735,827.097 518.5,826.5C 519.492,826.672 520.158,826.338 520.5,825.5 Z"/></g>
<g><path style="opacity:0.024" fill="#fefffe" d="M 503.5,826.5 C 503.103,827.525 502.437,827.692 501.5,827C 502.094,826.536 502.761,826.369 503.5,826.5 Z"/></g>
</svg>
